<svg xmlns="http://www.w3.org/2000/svg" width="8" height="8" viewBox="0 0 8 8">
    <defs>
        <style>
            .cls-1{fill:none}.cls-2{clip-path:url(#clip-path)}.cls-3{fill:#999}
        </style>
        <clipPath id="clip-path">
            <path d="M0 0h8v8H0z" class="cls-1"/>
        </clipPath>
    </defs>
    <g id="help" class="cls-2">
        <g id="Group_102" data-name="Group 102">
            <g id="Group_101" data-name="Group 101">
                <path id="Union_2" d="M0 4a4 4 0 1 1 4 4 4 4 0 0 1-4-4zm.8 0A3.2 3.2 0 1 0 4 .8 3.2 3.2 0 0 0 .8 4zm2.8 2.4v-.8h.8v.8zm0-1.2c0-1.3 1.2-1.2 1.2-2a.8.8 0 1 0-1.6 0h-.8a1.6 1.6 0 1 1 3.2 0c0 1-1.2 1.1-1.2 2z" class="cls-3" data-name="Union 2"/>
            </g>
        </g>
    </g>
</svg>
