<svg xmlns="http://www.w3.org/2000/svg" width="12.21" height="15.343" viewBox="0 0 12.21 15.343">
    <defs>
        <style>
            .cls-1{fill:none}.cls-2{fill:#d43d21}.cls-3{fill:#e74424}
        </style>
    </defs>
    <g id="aids" transform="translate(-40.471)">
        <g id="Layer_2_14_" transform="translate(40.471)">
            <g id="Group_58" data-name="Group 58">
                <path id="Path_7" d="M166.457 62.24a6.346 6.346 0 0 0-1.479.217h-.012c.053.1.109.19.169.282.44.678.838 1.28 1.323 1.954a48.33 48.33 0 0 0 1.323-1.954c.06-.092.116-.187.169-.282h-.012a6.344 6.344 0 0 0-1.481-.217z" class="cls-1" data-name="Path 7" transform="translate(-160.357 -59.894)"/>
                <path id="Path_8" d="M147.837 3.024h-.015a7.739 7.739 0 0 1 1.569-.217 6.346 6.346 0 0 1 1.479.217h.049a6.776 6.776 0 0 0 .757-2.4L151.653.6c-.1-.067-.18-.108-.2-.119L151.39.45a4.661 4.661 0 0 0-4 0l-.064.035c-.019.011-.1.052-.2.119l-.026.022a6.581 6.581 0 0 0 .737 2.398z" class="cls-2" data-name="Path 8" transform="translate(-143.289)"/>
                <path id="Path_9" d="M52.607 25.531a4257.893 4257.893 0 0 0-3.294-4.328l-.977-1.282c.239-.291 1-1.225 1.216-1.519a1.951 1.951 0 0 0 .288-2.026 45.356 45.356 0 0 0-.8-2.333 1.023 1.023 0 0 0-.524-.64 5.936 5.936 0 0 1-.662 2.067 4.523 4.523 0 0 1-.145.241c-.378.58-.72 1.093-1.136 1.669a41.05 41.05 0 0 1-1.136-1.669 3.944 3.944 0 0 1-.145-.241 5.936 5.936 0 0 1-.662-2.067 1.022 1.022 0 0 0-.524.64 42.43 42.43 0 0 0-.8 2.333 1.951 1.951 0 0 0 .284 2.024c.213.294.977 1.228 1.216 1.519L43.83 21.2c-.855 1.122-1.919 2.518-3.294 4.328a.308.308 0 0 0 0 .379l1.622 2.1a.362.362 0 0 0 .286.136.36.36 0 0 0 .294-.143c.032-.043 1.945-2.668 3.834-5.264 1.03 1.416 2.067 2.84 2.8 3.85.045 0 1.016-1.395 1.031-1.414a.36.36 0 0 1 .287-.144.362.362 0 0 1 .286.136l1.1 1.422h.057l.482-.654a.338.338 0 0 0-.008-.401z" class="cls-3" data-name="Path 9" transform="translate(-40.471 -12.798)"/>
                <path id="Path_10" d="M272.084 314.552h-.006a.442.442 0 0 0-.433.19c-.011.019-.4.563-1.168 1.672h3.22l-1.273-1.7a.429.429 0 0 0-.34-.162z" class="cls-2" data-name="Path 10" transform="translate(-262.116 -302.895)"/>
            </g>
        </g>
    </g>
</svg>
