<svg xmlns="http://www.w3.org/2000/svg" width="14.211" height="17.858" viewBox="0 0 14.211 17.858">
    <defs>
        <style>
            .cls-1{fill:none}.cls-2{fill:#e3c700}.cls-3{fill:#fcdd00}
        </style>
    </defs>
    <g id="aids" transform="translate(-40.471)">
        <g id="Layer_2_14_" transform="translate(40.471)">
            <g id="Group_58" data-name="Group 58">
                <path id="Path_7" d="M166.457 62.24a6.346 6.346 0 0 0-1.479.217h-.012c.053.1.109.19.169.282.44.678.838 1.28 1.323 1.954a48.33 48.33 0 0 0 1.323-1.954c.06-.092.116-.187.169-.282h-.012a6.344 6.344 0 0 0-1.481-.217z" class="cls-1" data-name="Path 7" transform="translate(-159.357 -59.436)"/>
                <path id="Path_8" d="M147.837 3.024h-.015a7.739 7.739 0 0 1 1.569-.217 6.346 6.346 0 0 1 1.479.217h.049a6.776 6.776 0 0 0 .757-2.4L151.653.6c-.1-.067-.18-.108-.2-.119L151.39.45a4.661 4.661 0 0 0-4 0l-.064.035c-.019.011-.1.052-.2.119l-.026.022a6.581 6.581 0 0 0 .737 2.398z" class="cls-2" data-name="Path 8" transform="translate(-142.291)"/>
                <path id="Path_9" d="M54.6 27.6c-1.6-2.118-2.839-3.753-3.834-5.066l-1.137-1.5c.278-.341 1.168-1.434 1.416-1.778a2.294 2.294 0 0 0 .335-2.372 51.611 51.611 0 0 0-.933-2.731 1.2 1.2 0 0 0-.61-.75 6.979 6.979 0 0 1-.77 2.42c-.053.1-.109.19-.169.282a46.99 46.99 0 0 1-1.323 1.954 48.33 48.33 0 0 1-1.323-1.954 4.776 4.776 0 0 1-.169-.282 6.979 6.979 0 0 1-.77-2.42 1.2 1.2 0 0 0-.61.75c-.143.371-.48 1.3-.933 2.731a2.294 2.294 0 0 0 .335 2.372c.247.344 1.138 1.437 1.416 1.778l-1.137 1.5c-1 1.313-2.233 2.948-3.834 5.066a.362.362 0 0 0 0 .444l1.886 2.456a.42.42 0 0 0 .333.16h.006a.419.419 0 0 0 .334-.168c.037-.051 2.264-3.123 4.462-6.162l3.262 4.506c.052 0 1.183-1.633 1.2-1.656a.419.419 0 0 1 .334-.168h.006a.42.42 0 0 1 .333.16l1.281 1.665h.066l.561-.765a.4.4 0 0 0-.014-.472z" class="cls-3" data-name="Path 9" transform="translate(-40.471 -12.798)"/>
                <path id="Path_10" d="M272.084 314.552h-.006a.442.442 0 0 0-.433.19c-.011.019-.4.563-1.168 1.672h3.22l-1.273-1.7a.429.429 0 0 0-.34-.162z" class="cls-2" data-name="Path 10" transform="translate(-260.115 -300.381)"/>
            </g>
        </g>
    </g>
</svg>
