<svg xmlns="http://www.w3.org/2000/svg" width="30" height="28" viewBox="0 0 30 28">
    <g fill="#1674B9" fill-rule="evenodd">
        <path fill-rule="nonzero" d="M17.569 20.804c3.325-1.406 5.478-4.786 5.43-8.511C23 7.169 18.74 3 13.5 3s-9.499 4.17-9.499 9.293c-.055 3.725 2.106 7.105 5.43 8.511l.072.041.506.855c-.894.543-1.203 1.736-.68 2.665.07.123.15.238.245.345a2.027 2.027 0 0 0 .119 2.78 1.83 1.83 0 0 0 1.282.51h5.066c1.045.008 1.892-.872 1.9-1.957 0-.494-.174-.97-.49-1.333a2.003 2.003 0 0 0-.112-2.755 2.008 2.008 0 0 0-.332-.255l.507-.855.055-.04zm-1.544 5.88H10.96a.648.648 0 0 1-.633-.658c0-.362.285-.658.633-.658h5.066c.349 0 .634.296.634.658a.648.648 0 0 1-.634.658zm0-2.632H10.96a.648.648 0 0 1-.633-.657c0-.362.285-.658.633-.658h5.066c.349 0 .634.296.634.658a.648.648 0 0 1-.634.657zm.966-4.416l-.253.14a.672.672 0 0 0-.238.239l-.83 1.414h-.278v-4.992l2.984-3.1-.894-.93-3.167 3.29a.665.665 0 0 0-.182.469v5.263h-1.266v-5.263a.68.68 0 0 0-.182-.469l-3.167-3.29-.894.93 2.984 3.1v4.992h-.277l-.831-1.414a.672.672 0 0 0-.237-.239l-.254-.14c-.024-.008-.04-.024-.063-.033-2.866-1.2-4.718-4.103-4.67-7.31 0-4.4 3.696-7.977 8.232-7.977s8.233 3.577 8.233 7.977c.047 3.207-1.813 6.11-4.67 7.31a.18.18 0 0 0-.08.033z"/>
        <path d="M7.957.985a.385.385 0 0 0-.043-.104c0-.008-.008-.008-.017-.016V.85a.757.757 0 0 0-.085-.072C7.777.746 7.752.714 7.709.69a.861.861 0 0 0-.154-.056C7.529.618 7.495.61 7.469.602L4.522.01c-.377-.064-.728.167-.797.519-.06.327.154.647.506.727l1.524.311C1.146 5.243-.918 10.978.384 16.498c.077.344.445.56.814.488.368-.072.6-.415.522-.759-1.148-4.857.557-9.921 4.472-13.309l-.265 1.039c-.086.343.137.687.505.767a.67.67 0 0 0 .309 0 .674.674 0 0 0 .522-.48l.728-2.875v-.024C8 1.297 8 1.249 8 1.209v-.112a.228.228 0 0 0-.043-.112zM25.748 18.226a.385.385 0 0 0 .101.048c.005.006.012 0 .024 0l.01.012c.035.001.07.002.112-.003.047 0 .087.007.135-.004a.861.861 0 0 0 .152-.062c.03-.005.06-.022.085-.033l2.586-1.533c.323-.204.429-.612.245-.919-.175-.283-.548-.377-.862-.202l-1.342.79c.966-5.816-1.337-11.46-5.999-14.69-.287-.204-.705-.118-.93.182-.226.3-.168.71.119.913 4.103 2.842 6.225 7.746 5.582 12.883l-.498-.95c-.166-.312-.561-.418-.889-.231a.67.67 0 0 0-.229.206.674.674 0 0 0-.067.706l1.383 2.625.016.017c.026.042.058.077.084.107l.075.083c.022.024.061.042.107.055z"/>
    </g>
</svg>
