<svg xmlns="http://www.w3.org/2000/svg" width="28" height="28" viewBox="0 0 28 28">
    <g fill="#1674B9" fill-rule="evenodd">
        <path fill-rule="nonzero" d="M28 0H4.065v17.161c0 1.222.33 2.365.897 3.356l-4.19 3.591A2.214 2.214 0 0 0 2.213 28c.647 0 1.26-.282 1.68-.773l3.59-4.189c.991.568 2.135.897 3.357.897a6.77 6.77 0 0 0 5.72-3.16H28V0zm-.903.903v2.71H4.967V.903h22.13zM3.206 26.64a1.307 1.307 0 0 1-2.303-.852c0-.383.167-.745.457-.994l4.108-3.52c.363.473.786.896 1.26 1.259L3.205 26.64zm7.633-3.608a5.878 5.878 0 0 1-5.871-5.87 5.878 5.878 0 0 1 5.87-5.872 5.878 5.878 0 0 1 5.872 5.871 5.878 5.878 0 0 1-5.871 5.871zm6.204-3.161c.364-.83.57-1.746.57-2.71a6.782 6.782 0 0 0-6.774-6.774c-2.51 0-4.701 1.375-5.871 3.409v-9.28h22.129v15.355H17.043z"/>
        <path d="M6 2h1v1H6zM8 2h1v1H8zM10 2h1v1h-1z"/>
        <path fill-rule="nonzero" d="M19 18h7v-5h-7v5zm2.625-4.167h1.75v.834h-1.75v-.834zm-1.75 0h.875V15.5h3.5v-1.667h.875v3.334h-5.25v-3.334zM19 12h7V7h-7v5zm2.625-4.167h1.75v.834h-1.75v-.834zm-1.75 0h.875V9.5h3.5V7.833h.875v3.334h-5.25V7.833z"/>
        <path d="M6 7h4v1H6zM12 7h4v1h-4z"/>
    </g>
</svg>
